<!-- Sourced and adapted from https://www.svgrepo.com/svg/104071/curved-arrow -->
<svg xmlns="http://www.w3.org/2000/svg" viewBox="0 0 302.816 302.816" fill="gold">
  <path d="
    M298.423,152.996
    c-5.857-5.858-15.354-5.858-21.213,0
    l-35.137,35.136
    c-5.871-59.78-50.15-111.403-112.001-123.706
    c-45.526-9.055-92.479,5.005-125.596,37.612
    c-5.903,5.813-5.977,15.31-0.165,21.213
    c5.813,5.903,15.31,5.977,21.212,0.164
    c26.029-25.628,62.923-36.679,98.695-29.565
    c48.865,9.72,83.772,50.677,88.07,97.978
    l-38.835-38.835
    c-5.857-5.857-15.355-5.858-21.213,0.001
    c-5.858,5.858-5.858,15.355,0,21.213
    l62.485,62.485
    c2.929,2.929,6.768,4.393,10.606,4.393
    s7.678-1.464,10.607-4.393
    l62.483-62.482
    C304.281,168.352,304.281,158.854,298.423,152.996z"
  />
</svg>